<?xml version="1.0" encoding="UTF-8" standalone="no"?>
<svg width="512px" height="512px" viewBox="0 0 512 512" version="1.1" xmlns="http://www.w3.org/2000/svg" xmlns:xlink="http://www.w3.org/1999/xlink" xmlns:sketch="http://www.bohemiancoding.com/sketch/ns">
    <!-- Generator: bin/sketchtool 1.2 (196) - http://www.bohemiancoding.com/sketch -->
    <title>bold</title>
    <desc>Created with bin/sketchtool.</desc>
    <defs></defs>
    <g id="Page-1" stroke="none" stroke-width="1" fill="none" fill-rule="evenodd" sketch:type="MSPage">
        <g id="bold" sketch:type="MSArtboardGroup" fill="#000000">
            <path d="M384.729927,314.738751 C384.729927,329.148494 381.819372,342.023673 375.998175,353.364674 C370.176978,364.705676 362.181316,374.111895 352.010949,381.583613 C340.234734,390.389567 327.287783,396.66038 313.169708,400.396239 C299.051633,404.132098 281.153393,406 259.474453,406 L129,406 L129,108 L245.021898,108 C269.109609,108 286.740212,108.800529 297.914234,110.401612 C309.088255,112.002694 320.161746,115.538365 331.135036,121.008731 C342.509789,126.745943 350.973817,134.451037 356.527372,144.124244 C362.080928,153.797452 364.857664,164.838084 364.857664,177.246474 C364.857664,191.656217 361.043834,204.364619 353.416058,215.372062 C345.788283,226.379504 335.015885,234.951839 321.09854,241.089322 L321.09854,242.690396 C340.636351,246.559679 356.125855,254.564972 367.567518,266.706514 C379.009181,278.848057 384.729927,294.858642 384.729927,314.738751 L384.729927,314.738751 Z M285.970803,192.256548 C285.970803,187.319877 284.732981,182.38328 282.257299,177.446608 C279.781618,172.509937 275.399058,168.840845 269.109489,166.439221 C263.489023,164.304444 256.497,163.137006 248.133212,162.93687 C239.769423,162.736735 228.02684,162.636669 212.905109,162.636669 L205.678832,162.636669 L205.678832,225.678979 L217.722628,225.678979 C229.900304,225.678979 240.271247,225.478847 248.835766,225.078576 C257.400286,224.678306 264.158126,223.34409 269.109489,221.07589 C276.068161,218.007148 280.617994,214.037857 282.759124,209.167898 C284.900254,204.297938 285.970803,198.660878 285.970803,192.256548 L285.970803,192.256548 Z M304.839416,313.537945 C304.839416,304.064873 302.99941,296.760044 299.319343,291.623237 C295.639276,286.486431 289.383256,282.650561 280.551095,280.115514 C274.529167,278.381008 266.232413,277.447057 255.660584,277.313633 C245.088755,277.18021 234.048719,277.113499 222.540146,277.113499 L205.678832,277.113499 L205.678832,351.363331 L211.29927,351.363331 C232.978211,351.363331 248.50117,351.29662 257.868613,351.163197 C267.236057,351.029773 275.867357,349.295293 283.762774,345.959704 C291.792011,342.624116 297.312029,338.187849 300.322993,332.650772 C303.333957,327.113695 304.839416,320.742816 304.839416,313.537945 L304.839416,313.537945 Z" id="B" sketch:type="MSShapeGroup"></path>
        </g>
    </g>
</svg>