<?xml version="1.0" encoding="UTF-8" standalone="no"?>
<svg width="512px" height="512px" viewBox="0 0 512 512" version="1.1" xmlns="http://www.w3.org/2000/svg" xmlns:xlink="http://www.w3.org/1999/xlink" xmlns:sketch="http://www.bohemiancoding.com/sketch/ns">
    <!-- Generator: bin/sketchtool 1.2 (196) - http://www.bohemiancoding.com/sketch -->
    <title>image</title>
    <desc>Created with bin/sketchtool.</desc>
    <defs></defs>
    <g id="Page-1" stroke="none" stroke-width="1" fill="none" fill-rule="evenodd" sketch:type="MSPage">
        <g id="image" sketch:type="MSArtboardGroup" fill="#000000">
            <path d="M32,96 L64,96 L64,416 L32,416 L32,96 L32,96 Z M80.6894531,367.984375 L80.6894531,271.669828 L192.010986,159.956177 L368.61519,335.223841 L379.29868,324.540351 L311.037354,256.071727 L374.003174,208.004027 L432,256.071727 L432,367.779363 L80.6894531,367.984375 L80.6894531,367.984375 Z M480,112 L480,96 L64,96 L64,128 L448,128 L448,384 L64,384 L64,416 L464,416 L480,416 L480,112 L480,112 L480,112 Z" id="Path" sketch:type="MSShapeGroup"></path>
        </g>
    </g>
</svg>