<?xml version="1.0" encoding="UTF-8" standalone="no"?>
<svg width="512px" height="512px" viewBox="0 0 512 512" version="1.1" xmlns="http://www.w3.org/2000/svg" xmlns:xlink="http://www.w3.org/1999/xlink" xmlns:sketch="http://www.bohemiancoding.com/sketch/ns">
    <!-- Generator: bin/sketchtool 1.2 (196) - http://www.bohemiancoding.com/sketch -->
    <title>link</title>
    <desc>Created with bin/sketchtool.</desc>
    <defs></defs>
    <g id="Page-1" stroke="none" stroke-width="1" fill="none" fill-rule="evenodd" sketch:type="MSPage">
        <g id="link" sketch:type="MSArtboardGroup" fill="#000000">
            <path d="M241.910734,225.690934 C225.442569,201.097997 228.069266,167.511411 249.793147,145.78753 L299.599534,95.9811426 C324.311496,71.2691808 364.381667,71.273345 389.089684,95.9813623 L415.869427,122.761105 C440.58151,147.473188 440.582723,187.538178 415.869646,212.251255 L366.063259,262.057642 C344.949193,283.171708 312.623466,286.242734 288.247176,271.278374 L314.576853,244.948697 C323.838121,247.214807 334.025557,244.733008 341.259499,237.499065 L391.31107,187.447495 C402.326878,176.431686 402.327758,158.567012 391.309705,147.548958 L364.301831,120.541084 C353.28861,109.527864 335.420594,109.522419 324.403294,120.539719 L274.351724,170.591289 C266.422866,178.520147 264.200513,189.997198 267.686159,199.915508 L241.910734,225.690934 L241.910734,225.690934 L241.910734,225.690934 Z M226.212829,241.38884 C201.721346,225.678991 168.763742,228.529755 147.344374,249.949123 L97.5379873,299.75551 C72.8249109,324.468587 72.8261239,364.533577 97.538207,389.24566 L124.31795,416.025402 C149.025967,440.73342 189.096137,440.737584 213.808099,416.025622 L263.614486,366.219235 C285.035254,344.798467 287.888046,311.843726 272.175088,287.350462 L246.141098,313.384452 C249.004546,322.994165 246.64238,333.829005 239.05591,341.415475 L189.00434,391.467046 C177.98704,402.484345 160.119023,402.478901 149.105802,391.46568 L122.097929,364.457807 C111.079875,353.439753 111.080755,335.575078 122.096564,324.55927 L172.148134,274.507699 C179.734763,266.92107 190.569897,264.561256 200.178293,267.423369 L226.212829,241.38884 L226.212829,241.38884 L226.212829,241.38884 Z M187.50887,326.087147 C179.493851,318.072129 179.49636,305.074709 187.506562,297.064507 L297.599261,186.971807 C305.613005,178.958064 318.605608,178.957821 326.621902,186.974115 L326.664481,187.016694 C334.6795,195.031713 334.676991,208.029133 326.666789,216.039335 L216.57409,326.132035 C208.560346,334.145778 195.567743,334.146021 187.551449,326.129727 L187.50887,326.087147 L187.50887,326.087147 Z" id="Rectangle-34" sketch:type="MSShapeGroup"></path>
        </g>
    </g>
</svg>