<?xml version="1.0" encoding="UTF-8" standalone="no"?>
<svg width="512px" height="512px" viewBox="0 0 512 512" version="1.1" xmlns="http://www.w3.org/2000/svg" xmlns:xlink="http://www.w3.org/1999/xlink" xmlns:sketch="http://www.bohemiancoding.com/sketch/ns">
    <!-- Generator: bin/sketchtool 1.2 (196) - http://www.bohemiancoding.com/sketch -->
    <title>link</title>
    <desc>Created with bin/sketchtool.</desc>
    <defs></defs>
    <g id="Page-1" stroke="none" stroke-width="1" fill="none" fill-rule="evenodd" sketch:type="MSPage">
        <g id="link" sketch:type="MSArtboardGroup" fill="#000000">
            <path d="M267.677665,224.108956 C273.422747,195.074372 299.029405,173.182424 329.751612,173.182424 L400.18848,173.182424 C435.136472,173.182424 463.467417,201.519258 463.467417,236.461671 L463.467417,274.333946 C463.467417,309.282109 435.138048,337.613193 400.18848,337.613193 L329.751612,337.613193 C299.891813,337.613193 274.86253,316.926997 268.20729,289.108956 L305.443076,289.108956 C310.3894,297.260043 319.347901,302.708751 329.578242,302.708751 L400.361851,302.708751 C415.940557,302.708751 428.573412,290.07714 428.573412,274.495259 L428.573412,236.300358 C428.573412,220.725312 415.942666,208.086867 400.361851,208.086867 L329.578242,208.086867 C318.365143,208.086867 308.678202,214.630927 304.129622,224.108954 L267.677665,224.108956 L267.677665,224.108956 L267.677665,224.108956 Z M245.477475,224.108956 C239.267922,195.682322 213.947582,174.393571 183.656021,174.393571 L113.219153,174.393571 C78.2695854,174.393571 49.9402168,202.724655 49.9402168,237.672818 L49.9402168,275.545093 C49.9402168,310.487507 78.2711616,338.82434 113.219153,338.82434 L183.656021,338.82434 C213.949561,338.82434 239.269311,317.539047 245.477925,289.108956 L208.660304,289.108956 C203.889974,297.928812 194.558281,303.919898 183.829392,303.919898 L113.045782,303.919898 C97.4649676,303.919898 84.8342217,291.281452 84.8342217,275.706406 L84.8342217,237.511505 C84.8342217,221.929624 97.4670767,209.298014 113.045782,209.298014 L183.829392,209.298014 C194.558506,209.298014 203.888743,215.290969 208.659086,224.108951 L245.477475,224.108956 L245.477475,224.108956 L245.477475,224.108956 Z M158.218895,256.631871 C158.218895,245.296924 167.411233,236.108133 178.739369,236.108133 L334.433958,236.108133 C345.767103,236.108133 354.954432,245.295119 354.954432,256.631871 L354.954432,256.692088 C354.954432,268.027035 345.762094,277.215826 334.433958,277.215826 L178.739369,277.215826 C167.406224,277.215826 158.218895,268.02884 158.218895,256.692088 L158.218895,256.631871 L158.218895,256.631871 Z" id="Rectangle-34" sketch:type="MSShapeGroup" transform="translate(256.703817, 256.003382) rotate(-45.000000) translate(-256.703817, -256.003382) "></path>
        </g>
    </g>
</svg>