<?xml version="1.0" encoding="UTF-8" standalone="no"?>
<svg width="512px" height="512px" viewBox="0 0 512 512" version="1.1" xmlns="http://www.w3.org/2000/svg" xmlns:xlink="http://www.w3.org/1999/xlink" xmlns:sketch="http://www.bohemiancoding.com/sketch/ns">
    <!-- Generator: bin/sketchtool 1.2 (196) - http://www.bohemiancoding.com/sketch -->
    <title>ordered-list</title>
    <desc>Created with bin/sketchtool.</desc>
    <defs></defs>
    <g id="Page-1" stroke="none" stroke-width="1" fill="none" fill-rule="evenodd" sketch:type="MSPage">
        <g id="ordered-list" sketch:type="MSArtboardGroup" fill="#000000">
            <path d="M160,123 L448,123 L448,171 L160,171 L160,123 Z M160,235 L448,235 L448,283 L160,283 L160,235 Z M160,347 L448,347 L448,395 L160,395 L160,347 Z M121.0625,174 L74.46875,174 L74.46875,161.8125 L89.1875,161.8125 L89.1875,124.921875 L74.46875,124.921875 L74.46875,113.53125 C76.7187613,113.53125 78.8749897,113.398439 80.9375,113.132812 C83.0000103,112.867186 84.7187431,112.406253 86.09375,111.75 C87.7187581,110.968746 88.9374959,109.953131 89.75,108.703125 C90.5625041,107.453119 91.0312494,105.890634 91.15625,104.015625 L106.671875,104.015625 L106.671875,161.8125 L121.0625,161.8125 L121.0625,174 Z M119.121875,284 L69.8046875,284 L69.8046875,273.621875 C73.5734563,270.893736 77.3491998,267.99689 81.1320312,264.93125 C84.9148627,261.86561 87.9453011,259.221886 90.2234375,257 C93.6265795,253.709359 96.0453053,250.840637 97.4796875,248.39375 C98.9140697,245.946863 99.63125,243.528137 99.63125,241.1375 C99.63125,238.268736 98.7101655,236.053914 96.8679687,234.492969 C95.025772,232.932023 92.3750173,232.151563 88.915625,232.151563 C86.3281121,232.151563 83.6070455,232.685932 80.7523437,233.754687 C77.897642,234.823443 75.2468872,236.187492 72.8,237.846875 L71.45,237.846875 L71.45,223.882812 C73.446885,223.010933 76.3929493,222.139067 80.2882812,221.267188 C84.1836132,220.395308 88.085918,219.959375 91.9953125,219.959375 C99.8703519,219.959375 105.874979,221.611702 110.009375,224.916406 C114.143771,228.22111 116.210938,232.896845 116.210938,238.94375 C116.210938,242.909395 115.219541,246.678107 113.236719,250.25 C111.253896,253.821893 108.223458,257.506231 104.145312,261.303125 C101.585925,263.665637 99.0125129,265.838271 96.425,267.821094 C93.8374871,269.803916 91.995318,271.189059 90.8984375,271.976562 L119.121875,271.976562 L119.121875,284 Z M112.9625,367.553125 C114.340632,368.734381 115.437496,370.112492 116.253125,371.6875 C117.068754,373.262508 117.476562,375.357799 117.476562,377.973437 C117.476562,380.926577 116.892975,383.6828 115.725781,386.242188 C114.558588,388.801575 112.765637,390.995303 110.346875,392.823437 C107.984363,394.595321 105.207047,395.952339 102.014844,396.894531 C98.8226403,397.836723 94.9484603,398.307812 90.3921875,398.307812 C85.1890365,398.307812 80.7242374,397.900004 76.9976563,397.084375 C73.2710751,396.268746 70.2406367,395.354693 67.90625,394.342188 L67.90625,380.546875 L69.5515625,380.546875 C71.9703246,382.009382 74.8601394,383.274995 78.2210937,384.34375 C81.5820481,385.412505 84.6546736,385.946875 87.4390625,385.946875 C89.0703207,385.946875 90.8421779,385.813283 92.7546875,385.546094 C94.6671971,385.278905 96.2843684,384.695317 97.60625,383.795313 C98.6468802,383.092184 99.4765594,382.241411 100.095313,381.242969 C100.714066,380.244526 101.023438,378.803134 101.023438,376.91875 C101.023438,375.090616 100.601567,373.677349 99.7578125,372.678906 C98.9140583,371.680464 97.8031319,370.970315 96.425,370.548437 C95.0468681,370.098435 93.3875097,369.852344 91.446875,369.810156 C89.5062403,369.767969 87.7062583,369.746875 86.046875,369.746875 L82.5875,369.746875 L82.5875,358.525 L86.1734375,358.525 C88.3671985,358.525 90.3078041,358.454688 91.9953125,358.314062 C93.6828209,358.173437 95.1171816,357.850003 96.2984375,357.34375 C97.5359437,356.809372 98.4640594,356.099223 99.0828125,355.213281 C99.7015656,354.327339 100.010937,353.026571 100.010937,351.310938 C100.010937,350.045306 99.6875032,349.025785 99.040625,348.252344 C98.3937468,347.478902 97.5781299,346.86719 96.59375,346.417187 C95.4968695,345.910935 94.2031325,345.573438 92.7125,345.404688 C91.2218675,345.235937 89.9421928,345.151562 88.8734375,345.151562 C86.2296743,345.151562 83.360953,345.608589 80.2671875,346.522656 C77.173422,347.436723 74.1781395,348.751554 71.28125,350.467188 L69.7203125,350.467188 L69.7203125,336.840625 C72.026574,335.912495 75.1624802,335.019536 79.128125,334.161719 C83.0937698,333.303902 87.1156046,332.875 91.19375,332.875 C95.1593948,332.875 98.6327976,333.219528 101.614062,333.908594 C104.595327,334.59766 107.05624,335.518744 108.996875,336.671875 C111.303137,338.050007 113.018744,339.723428 114.14375,341.692187 C115.268756,343.660947 115.83125,345.967174 115.83125,348.610937 C115.83125,352.098455 114.748448,355.213268 112.582812,357.955469 C110.417177,360.69767 107.562518,362.448434 104.01875,363.207812 L104.01875,363.798437 C105.453132,363.995313 106.971867,364.38906 108.575,364.979687 C110.178133,365.570315 111.640618,366.428119 112.9625,367.553125 Z" id="Rectangle-31" sketch:type="MSShapeGroup"></path>
        </g>
    </g>
</svg>