<?xml version="1.0" encoding="UTF-8" standalone="no"?>
<svg width="512px" height="512px" viewBox="0 0 512 512" version="1.1" xmlns="http://www.w3.org/2000/svg" xmlns:xlink="http://www.w3.org/1999/xlink" xmlns:sketch="http://www.bohemiancoding.com/sketch/ns">
    <!-- Generator: bin/sketchtool 1.2 (196) - http://www.bohemiancoding.com/sketch -->
    <title>underline</title>
    <desc>Created with bin/sketchtool.</desc>
    <defs></defs>
    <g id="Page-1" stroke="none" stroke-width="1" fill="none" fill-rule="evenodd" sketch:type="MSPage">
        <g id="underline" sketch:type="MSArtboardGroup" fill="#000000">
            <path d="M157,387 L353,387 L353,416 L157,416 L157,387 L157,387 Z M351.682059,258.821711 C351.682059,277.224434 349.666561,293.269778 345.635503,306.958224 C341.604446,320.646669 334.990205,332.034604 325.792581,341.122368 C317.049161,349.755745 306.829733,356.060287 295.133989,360.036184 C283.438246,364.012081 269.812341,366 254.255867,366 C238.35874,366 224.505737,363.898486 212.696442,359.695395 C200.887148,355.492304 190.951592,349.301357 182.889478,341.122368 C173.691854,331.80741 167.077613,320.561469 163.046556,307.384211 C159.015498,294.206952 157,278.019614 157,258.821711 L157,107 L190.724451,107 L190.724451,260.525658 C190.724451,274.270902 191.661232,285.119258 193.534822,293.071053 C195.408412,301.022847 198.559403,308.236152 202.987888,314.711184 C207.984128,322.094993 214.768693,327.661165 223.341787,331.409868 C231.91488,335.158571 242.21947,337.032895 254.255867,337.032895 C266.405814,337.032895 276.738792,335.18697 285.25511,331.495066 C293.771428,327.803161 300.58438,322.20859 305.694171,314.711184 C310.122657,308.236152 313.273647,300.824055 315.147237,292.474671 C317.020827,284.125287 317.957608,273.759711 317.957608,261.377632 L317.957608,107 L351.682059,107 L351.682059,258.821711 L351.682059,258.821711 Z" id="Underline" sketch:type="MSShapeGroup"></path>
        </g>
    </g>
</svg>